# Blender v2.79 (sub 0) OBJ File: 'Aviao de papel.blend'
# www.blender.org
mtllib Aviao de papel.mtl
o Plane_Plane.001
v 1.044666 0.562077 0.066729
v 1.039907 0.494353 1.110279
v 0.189413 0.366756 1.110279
v 1.044666 0.562077 -0.056686
v 1.039907 0.494353 -1.100237
v 0.189413 0.366756 -1.100237
v -2.021013 0.003232 0.005021
v 1.044666 0.003231 0.005021
vt 0.398969 0.010393
vt 0.109562 0.988426
vt 0.109562 0.010393
vt 0.497388 0.988426
vt 0.497388 0.010393
vt 0.993427 0.010393
vt 0.993427 0.284709
vt 0.593618 0.010393
vt 0.883024 0.010393
vt 0.883025 0.988426
vt 0.495199 0.988426
vt 0.010021 0.284709
vt 0.010021 0.010393
vt 0.495199 0.010393
vn -0.0000 -0.1098 0.9940
vn 0.1731 -0.9840 -0.0423
vn 0.0000 -0.1098 -0.9940
vn 0.1731 -0.9840 0.0423
usemtl Material
s off
f 1/1/1 7/2/1 8/3/1
f 7/4/2 1/5/2 2/6/2 3/7/2
f 4/8/3 8/9/3 7/10/3
f 7/11/4 6/12/4 5/13/4 4/14/4
