# Blender v2.79 (sub 0) OBJ File: 'Cavalete de partitura.blend'
# www.blender.org
mtllib Cavalete de partitura.mtl
o Cube_Cube.001
v -3.436052 0.008012 0.158555
v -3.436052 9.927106 0.158555
v 3.436052 0.008012 0.158555
v 3.436052 10.000851 0.158555
v 3.372190 14.720565 -2.207317
v -3.372190 14.720565 -2.207317
v 3.372190 9.748864 0.415778
v -3.372190 9.748864 0.415778
v 0.000000 -0.017833 -2.353134
v 0.000000 0.008012 -3.432523
v 0.000000 10.000851 -3.432523
v 0.000000 0.008012 3.439581
v 0.000000 10.000851 3.439581
vt 0.633058 0.159594
vt 0.646519 0.715523
vt 0.354517 0.715523
vt 0.341055 0.159594
vt 0.288595 0.714283
vt 0.710302 0.714283
vt 0.710302 0.948927
vt 0.288595 0.948927
vt 0.634052 0.159594
vt 0.646519 0.715523
vt 0.354517 0.715523
vt 0.342255 0.159594
vn 0.0000 0.0000 1.0000
vn 0.0000 0.4666 0.8844
vn -1.0000 0.0000 0.0000
usemtl Material.001
s off
f 3/1/1 4/2/1 2/3/1 1/4/1
f 8/5/2 7/6/2 5/7/2 6/8/2
f 12/9/3 13/10/3 11/11/3 10/12/3
